<?xml version="1.0" encoding="UTF-8" standalone="no"?>
<svg width="87px" height="100px" viewBox="0 0 87 100" version="1.1" xmlns="http://www.w3.org/2000/svg" xmlns:xlink="http://www.w3.org/1999/xlink" xmlns:sketch="http://www.bohemiancoding.com/sketch/ns">
    <title>Slice 1</title>
    <description>Created with Sketch (http://www.bohemiancoding.com/sketch)</description>
    <defs></defs>
    <g id="Page-1" stroke="none" stroke-width="1" fill="none" fill-rule="evenodd" sketch:type="MSPage">
        <g id="noun_15531_cc" sketch:type="MSLayerGroup" transform="translate(1.000000, 0.000000)" fill="#000000">
            <path d="M42.755,0 C18.839,0 0.106,10.274 0.106,23.39 C0.106,23.724 0.13,24.056 0.156,24.389 L0.106,24.389 C0.106,24.389 0.094,31.76 0.053,41.1 C0.029,53.756 -0.009,70.03 -0.009,76.531 C-0.009,89.635 18.66,99.91 42.512,99.91 C66.286,99.91 84.905,89.635 84.905,76.531 C84.905,72.962 84.956,66.269 85.02,58.823 C85.173,43.006 85.39,23.71 85.405,23.428 L85.405,23.389 C85.404,10.274 66.67,0 42.755,0 L42.755,0 Z M5.889,76.531 C5.889,74.65 5.889,71.938 5.902,68.726 C12.584,75.903 26.415,80.728 42.756,80.728 C58.637,80.728 72.147,76.173 79.031,69.328 C79.02,72.297 79.007,74.778 79.007,76.531 C79.007,86.001 62.295,94.01 42.513,94.01 C22.664,94.011 5.889,86.001 5.889,76.531 L5.889,76.531 Z M42.755,5.911 L42.78,5.911 C62.676,5.925 79.491,13.909 79.491,23.39 L79.491,23.404 C79.491,25.387 78.748,27.306 77.392,29.097 C77.111,29.494 76.778,29.878 76.406,30.262 C76.075,30.634 75.717,30.992 75.32,31.337 C74.974,31.657 74.615,31.964 74.246,32.246 C73.849,32.565 73.438,32.873 73.005,33.167 C72.608,33.436 72.198,33.705 71.764,33.973 C69.383,35.444 66.516,36.723 63.305,37.773 C57.406,39.719 50.304,40.87 42.755,40.87 C35.205,40.87 28.102,39.72 22.204,37.773 C18.992,36.723 16.127,35.431 13.747,33.973 C13.31,33.705 12.902,33.435 12.505,33.167 C12.07,32.873 11.66,32.565 11.265,32.246 C10.893,31.952 10.536,31.657 10.189,31.337 C9.792,30.992 9.433,30.633 9.101,30.262 C8.731,29.879 8.412,29.495 8.128,29.097 C6.759,27.306 6.017,25.375 6.017,23.39 C6.017,13.908 22.844,5.911 42.755,5.911 L42.755,5.911 Z M5.901,63.736 C5.915,59.909 5.926,55.713 5.926,51.515 C5.966,51.401 6.004,51.271 6.03,51.158 C7.271,52.463 8.744,53.691 10.431,54.817 C17.905,59.845 29.51,63.019 42.754,63.019 C55.997,63.019 67.604,59.845 75.076,54.817 C76.637,53.78 78.019,52.641 79.196,51.452 C79.144,55.597 79.107,59.744 79.067,63.507 L79.067,64.619 C73.989,72.168 59.415,77.772 42.754,77.772 C25.786,77.772 10.982,71.95 6.171,64.197 C6.069,64.043 5.979,63.89 5.901,63.736 L5.901,63.736 Z M6.234,35.624 C6.912,36.251 7.655,36.852 8.436,37.428 C8.845,37.734 9.268,38.029 9.704,38.323 C10.112,38.592 10.521,38.86 10.957,39.13 C13.094,40.434 15.498,41.6 18.147,42.61 C25.057,45.246 33.515,46.781 42.754,46.781 C51.992,46.781 60.45,45.246 67.359,42.61 C69.995,41.6 72.402,40.434 74.55,39.13 C74.973,38.86 75.395,38.605 75.806,38.323 C76.253,38.029 76.676,37.734 77.085,37.428 C77.864,36.851 78.606,36.251 79.284,35.636 C79.31,35.675 79.337,35.726 79.36,35.763 C79.337,37.747 79.31,39.87 79.284,42.097 C79.271,43.389 79.259,44.707 79.247,46.051 L79.247,46.627 C78.977,47.049 78.685,47.459 78.351,47.868 C77.133,49.391 75.534,50.825 73.602,52.13 C66.578,56.903 55.253,60.064 42.752,60.064 C30.25,60.064 18.925,56.904 11.9,52.13 C9.966,50.825 8.369,49.392 7.153,47.868 C6.768,47.382 6.424,46.896 6.116,46.397 C6.053,46.295 5.989,46.192 5.938,46.089 C5.95,44.951 5.95,43.825 5.95,42.725 C5.964,40.37 5.964,38.131 5.976,36.058 C6.056,35.917 6.131,35.763 6.234,35.624 L6.234,35.624 Z" id="Shape" sketch:type="MSShapeGroup"></path>
        </g>
    </g>
</svg>