<?xml version="1.0" encoding="UTF-8" standalone="no"?>
<svg width="90px" height="58px" viewBox="0 0 90 58" version="1.1" xmlns="http://www.w3.org/2000/svg" xmlns:xlink="http://www.w3.org/1999/xlink" xmlns:sketch="http://www.bohemiancoding.com/sketch/ns">
    <title>Slice 1</title>
    <description>Created with Sketch (http://www.bohemiancoding.com/sketch)</description>
    <defs></defs>
    <g id="Page-1" stroke="none" stroke-width="1" fill="none" fill-rule="evenodd" sketch:type="MSPage">
        <g id="noun_167946_cc" sketch:type="MSLayerGroup" transform="translate(0.000000, 1.000000)" fill="#000000">
            <g id="Group" sketch:type="MSShapeGroup">
                <path d="M90,42.187 C90,36.312 84.573,31.397 77.27,30.061 L77.27,27.256 C79.932,25.448 81.744,21.885 81.744,17.78 C81.744,11.849 77.962,7.041 73.297,7.041 C68.632,7.041 64.85,11.849 64.85,17.78 C64.85,21.885 66.663,25.448 69.325,27.256 L69.325,30.061 C66.542,30.57 64.035,31.601 61.994,33.005 C67.291,36.178 71.018,40.802 72.342,46.158 L86.273,46.158 C88.323,46.158 89.985,44.468 89.985,42.383 C89.985,42.316 89.969,42.254 89.966,42.188 L90,42.188 L90,42.187 Z" id="Shape"></path>
                <path d="M28.006,33.004 C25.965,31.601 23.458,30.569 20.675,30.061 L20.675,27.256 C23.337,25.448 25.15,21.885 25.15,17.78 C25.15,11.849 21.368,7.041 16.703,7.041 C12.038,7.041 8.256,11.849 8.256,17.78 C8.256,21.885 10.069,25.448 12.731,27.256 L12.731,30.061 C5.427,31.397 0,36.312 0,42.187 L0.035,42.187 C0.032,42.253 0.016,42.316 0.016,42.382 C0.016,44.467 1.678,46.157 3.728,46.157 L17.659,46.157 C18.982,40.801 22.709,36.177 28.006,33.004 L28.006,33.004 Z" id="Shape"></path>
                <path d="M68.996,49.758 L68.996,49.146 C68.996,48.714 68.911,48.305 68.782,47.917 C68.671,47.319 68.506,46.735 68.319,46.158 C66.94,41.917 63.561,38.266 58.96,35.802 C56.513,34.491 53.726,33.513 50.713,32.962 L50.713,28.945 C54.541,26.346 57.147,21.221 57.147,15.319 C57.147,6.79 51.709,-0.124 45,-0.124 C38.291,-0.124 32.853,6.79 32.853,15.319 C32.853,21.222 35.46,26.346 39.288,28.945 L39.288,32.962 C36.275,33.512 33.488,34.491 31.041,35.802 C26.439,38.267 23.061,41.918 21.682,46.158 C21.494,46.736 21.33,47.32 21.219,47.918 C21.091,48.306 21.005,48.715 21.005,49.147 L21.005,49.757 C20.995,49.976 20.983,50.195 20.983,50.417 L21.005,50.417 L21.005,52.248 C21.005,54.39 22.712,56.126 24.818,56.126 L65.184,56.126 C67.29,56.126 68.997,54.39 68.997,52.248 L68.997,50.417 L69.019,50.417 C69.018,50.195 69.007,49.977 68.996,49.758 L68.996,49.758 Z" id="Shape"></path>
            </g>
        </g>
    </g>
</svg>